<mxfile host="app.diagrams.net" agent="Mozilla/5.0 (Windows NT 10.0; Win64; x64) AppleWebKit/537.36 (KHTML, like Gecko) Chrome/128.0.0.0 Safari/537.36" version="24.7.8">
  <diagram name="‫עמוד-1‬" id="9gCyP-xOjD5dcYOPeIzJ">
    <mxGraphModel dx="1050" dy="522" grid="1" gridSize="10" guides="1" tooltips="1" connect="1" arrows="1" fold="1" page="1" pageScale="1" pageWidth="827" pageHeight="1169" math="0" shadow="0">
      <root>
        <mxCell id="0" />
        <mxCell id="1" parent="0" />
        <mxCell id="nP1eanwkThaqdAtxU4lt-1" value="END" style="rounded=1;whiteSpace=wrap;html=1;" vertex="1" parent="1">
          <mxGeometry x="120" y="480" width="120" height="60" as="geometry" />
        </mxCell>
        <mxCell id="nP1eanwkThaqdAtxU4lt-9" value="" style="edgeStyle=orthogonalEdgeStyle;rounded=0;orthogonalLoop=1;jettySize=auto;html=1;" edge="1" parent="1" source="nP1eanwkThaqdAtxU4lt-2" target="nP1eanwkThaqdAtxU4lt-4">
          <mxGeometry relative="1" as="geometry" />
        </mxCell>
        <mxCell id="nP1eanwkThaqdAtxU4lt-2" value="START" style="rounded=1;whiteSpace=wrap;html=1;" vertex="1" parent="1">
          <mxGeometry x="120" width="120" height="60" as="geometry" />
        </mxCell>
        <mxCell id="nP1eanwkThaqdAtxU4lt-13" value="" style="edgeStyle=orthogonalEdgeStyle;rounded=0;orthogonalLoop=1;jettySize=auto;html=1;" edge="1" parent="1" source="nP1eanwkThaqdAtxU4lt-3" target="nP1eanwkThaqdAtxU4lt-8">
          <mxGeometry relative="1" as="geometry" />
        </mxCell>
        <mxCell id="nP1eanwkThaqdAtxU4lt-3" value="X=Enter a number&amp;nbsp;" style="shape=card;whiteSpace=wrap;html=1;" vertex="1" parent="1">
          <mxGeometry x="120" y="250" width="120" height="60" as="geometry" />
        </mxCell>
        <mxCell id="nP1eanwkThaqdAtxU4lt-10" value="" style="edgeStyle=orthogonalEdgeStyle;rounded=0;orthogonalLoop=1;jettySize=auto;html=1;" edge="1" parent="1" source="nP1eanwkThaqdAtxU4lt-4" target="nP1eanwkThaqdAtxU4lt-5">
          <mxGeometry relative="1" as="geometry" />
        </mxCell>
        <mxCell id="nP1eanwkThaqdAtxU4lt-4" value="Y=Enter a number" style="shape=card;whiteSpace=wrap;html=1;" vertex="1" parent="1">
          <mxGeometry x="120" y="90" width="120" height="60" as="geometry" />
        </mxCell>
        <mxCell id="nP1eanwkThaqdAtxU4lt-11" value="" style="edgeStyle=orthogonalEdgeStyle;rounded=0;orthogonalLoop=1;jettySize=auto;html=1;exitX=0.5;exitY=1;exitDx=0;exitDy=0;exitPerimeter=0;" edge="1" parent="1" source="nP1eanwkThaqdAtxU4lt-5">
          <mxGeometry relative="1" as="geometry">
            <mxPoint x="179.5" y="150" as="sourcePoint" />
            <mxPoint x="179.5" y="250" as="targetPoint" />
          </mxGeometry>
        </mxCell>
        <mxCell id="nP1eanwkThaqdAtxU4lt-5" value="Z= Enter a number" style="shape=card;whiteSpace=wrap;html=1;" vertex="1" parent="1">
          <mxGeometry x="120" y="170" width="120" height="60" as="geometry" />
        </mxCell>
        <mxCell id="nP1eanwkThaqdAtxU4lt-16" value="" style="edgeStyle=orthogonalEdgeStyle;rounded=0;orthogonalLoop=1;jettySize=auto;html=1;" edge="1" parent="1" source="nP1eanwkThaqdAtxU4lt-7" target="nP1eanwkThaqdAtxU4lt-1">
          <mxGeometry relative="1" as="geometry" />
        </mxCell>
        <mxCell id="nP1eanwkThaqdAtxU4lt-7" value="X*Y*Z" style="shape=document;whiteSpace=wrap;html=1;boundedLbl=1;" vertex="1" parent="1">
          <mxGeometry x="120" y="400" width="120" height="50" as="geometry" />
        </mxCell>
        <mxCell id="nP1eanwkThaqdAtxU4lt-14" value="" style="edgeStyle=orthogonalEdgeStyle;rounded=0;orthogonalLoop=1;jettySize=auto;html=1;" edge="1" parent="1" source="nP1eanwkThaqdAtxU4lt-8">
          <mxGeometry relative="1" as="geometry">
            <mxPoint x="180" y="400" as="targetPoint" />
          </mxGeometry>
        </mxCell>
        <mxCell id="nP1eanwkThaqdAtxU4lt-8" value="X+Y+Z" style="shape=document;whiteSpace=wrap;html=1;boundedLbl=1;" vertex="1" parent="1">
          <mxGeometry x="120" y="335" width="120" height="45" as="geometry" />
        </mxCell>
        <mxCell id="nP1eanwkThaqdAtxU4lt-12" style="edgeStyle=orthogonalEdgeStyle;rounded=0;orthogonalLoop=1;jettySize=auto;html=1;exitX=0.5;exitY=1;exitDx=0;exitDy=0;exitPerimeter=0;" edge="1" parent="1" source="nP1eanwkThaqdAtxU4lt-3" target="nP1eanwkThaqdAtxU4lt-3">
          <mxGeometry relative="1" as="geometry" />
        </mxCell>
      </root>
    </mxGraphModel>
  </diagram>
</mxfile>
